{"title":"The.Crossing.2014.CHINESE.1080p.BluRay.REMUX.AVC.TrueHD.7.1.Atmo","uid":12018640,"size":36339223723,"categoryP":"video","categoryS":"hd___movies","magnet":"?xt=urn:btih:f25c285ae06f1fd44be7a44af3c55b5ffc7d286b&amp;dn=The.Crossing.2014.CHINESE.1080p.BluRay.REMUX.AVC.TrueHD.7.1.Atmo&amp;tr=udp%3A%2F%2Ftracker.openbittorrent.com%3A80&amp;tr=udp%3A%2F%2Fopen.demonii.com%3A1337&amp;tr=udp%3A%2F%2Ftracker.coppersurfer.tk%3A6969&amp;tr=udp%3A%2F%2Fexodus.desync.com%3A6969","seeders":0,"leechers":0,"uploader":null,"files":4,"time":1434359961,"description":"Video\nID                                       : 1\nFormat                                   : AVC\nFormat/Info                              : Advanced Video Codec\nFormat profile                           : &lt;a class=&quot;__cf_email__&quot; href=&quot;/cdn-cgi/l/email-protection&quot; data-cfemail=&quot;2169484649616d150f10&quot;&gt;[email&amp;#160;protected]&lt;/a&gt;&lt;script data-cfhash='f9e31' type=&quot;text/javascript&quot;&gt;\n/* &lt;![CDATA[ */!function(){try{var t=&quot;currentScript&quot;in document?document.currentScript:function(){for(var t=document.getElementsByTagName(&quot;script&quot;),e=t.length;e--;)if(t[e].getAttribute(&quot;data-cfhash&quot;))return t[e]}();if(t&amp;&amp;t.previousSibling){var e,r,n,i,c=t.previousSibling,a=c.getAttribute(&quot;data-cfemail&quot;);if(a){for(e=&quot;&quot;,r=parseInt(a.substr(0,2),16),n=2;a.length-n;n+=2)i=parseInt(a.substr(n,2),16)^r,e+=String.fromCharCode(i);e=document.createTextNode(e),c.parentNode.replaceChild(e,c)}t.parentNode.removeChild(t);}}catch(u){}}()/* ]]&gt; */&lt;/script&gt;\nFormat settings, CABAC                   : Yes\nFormat settings, ReFrames                : 4 frames\nCodec ID                                 : V_MPEG4/ISO/AVC\nDuration                                 : 2h 8mn\nBit rate mode                            : Variable\nMaximum bit rate                         : 30.0 Mbps\nWidth                                    : 1 920 pixels\nHeight                                   : 1 080 pixels\nDisplay aspect ratio                     : 16:9\nFrame rate mode                          : Constant\nFrame rate                               : 24.000 fps\nStandard                                 : NTSC\nColor space                              : YUV\nChroma subsampling                       : 4:2:0\nBit depth                                : 8 bits\nScan type                                : Progressive\nTitle                                    : The.Crossing.2014.CHINESE.1080p.BluRay.REMUX.AVC.TrueHD.7.1-RARBG\nLanguage                                 : English\nDefault                                  : No\nForced                                   : No\nColor range                              : Limited\nColor primaries                          : BT.709\nTransfer characteristics                 : BT.709\nMatrix coefficients                      : BT.709\n\nAudio #1\nID                                       : 2\nFormat                                   : TrueHD\nCodec ID                                 : A_TRUEHD\nDuration                                 : 2h 8mn\nBit rate mode                            : Variable\nMaximum bit rate                         : 7 701 Kbps\nChannel(s)                               : 8 channels\nChannel positions                        : Front: L C R, Side: L R, Back: L R, LFE\nSampling rate                            : 48.0 KHz\nBit depth                                : 24 bits\nCompression mode                         : Lossless\nTitle                                    : The.Crossing.2014.CHINESE.1080p.BluRay.REMUX.AVC.TrueHD.7.1-RARBG\nLanguage                                 : Chinese\nDefault                                  : Yes\nForced                                   : No\n\nAudio #2\nID                                       : 3\nFormat                                   : AC-3\nFormat/Info                              : Audio Coding 3\nMode extension                           : CM (complete main)\nFormat settings, Endianness              : Big\nCodec ID                                 : A_AC3\nDuration                                 : 2h 8mn\nBit rate mode                            : Constant\nBit rate                                 : 640 Kbps\nChannel(s)                               : 6 channels\nChannel positions                        : Front: L C R, Side: L R, LFE\nSampling rate                            : 48.0 KHz\nBit depth                                : 16 bits\nCompression mode                         : Lossy\nStream size                              : 587 MiB (2%)\nTitle                                    : The.Crossing.2014.CHINESE.1080p.BluRay.REMUX.AVC.TrueHD.7.1-RARBG\nLanguage                                 : Chinese\nDefault                                  : No\nForced                                   : No\n\nAudio #3\nID                                       : 4\nFormat                                   : DTS\nFormat/Info                              : Digital Theater Systems\nFormat profile                           : MA / Core\nMode                                     : 16\nFormat settings, Endianness              : Big\nCodec ID                                 : A_DTS\nDuration                                 : 2h 8mn\nBit rate mode                            : Variable\nBit rate                                 : Unknown / 1 509 Kbps\nChannel(s)                               : 8 channels / 6 channels\nChannel positions                        : Front: L C R, Side: L R, Back: L R, LFE / Front: L C R, Side: L R, LFE\nSampling rate                            : 48.0 KHz\nBit depth                                : 16 bits\nCompression mode                         : Lossless / Lossy\nTitle                                    : The.Crossing.2014.CHINESE.1080p.BluRay.REMUX.AVC.TrueHD.7.1-RARBG\nLanguage                                 : Chinese\nDefault                                  : No\nForced                                   : No\n\nAudio #4\nID                                       : 5\nFormat                                   : DTS\nFormat/Info                              : Digital Theater Systems\nMode                                     : 16\nFormat settings, Endianness              : Big\nCodec ID                                 : A_DTS\nDuration                                 : 2h 8mn\nBit rate mode                            : Constant\nBit rate                                 : 1 509 Kbps\nChannel(s)                               : 6 channels\nChannel positions                        : Front: L C R, Side: L R, LFE\nSampling rate                            : 48.0 KHz\nBit depth                                : 16 bits\nCompression mode                         : Lossy\nStream size                              : 1.35 GiB (4%)\nTitle                                    : The.Crossing.2014.CHINESE.1080p.BluRay.REMUX.AVC.TrueHD.7.1-RARBG\nLanguage                                 : Chinese\nDefault                                  : No\nForced                                   : No\n\nAudio #5\nID                                       : 6\nFormat                                   : AC-3\nFormat/Info                              : Audio Coding 3\nMode extension                           : CM (complete main)\nFormat settings, Endianness              : Big\nCodec ID                                 : A_AC3\nDuration                                 : 2h 8mn\nBit rate mode                            : Constant\nBit rate                                 : 384 Kbps\nChannel(s)                               : 2 channels\nChannel positions                        : Front: L R\nSampling rate                            : 48.0 KHz\nBit depth                                : 16 bits\nCompression mode                         : Lossy\nStream size                              : 352 MiB (1%)\nTitle                                    : The.Crossing.2014.CHINESE.1080p.BluRay.REMUX.AVC.TrueHD.7.1-RARBG\nLanguage                                 : Chinese\nDefault                                  : No\nForced                                   : No\n\nText #1\nID                                       : 7\nFormat                                   : PGS\nMuxing mode                              : zlib\nCodec ID                                 : S_HDMV/PGS\nCodec ID/Info                            : Picture based subtitle format used on BDs/HD-DVDs\nLanguage                                 : English\nDefault                                  : Yes\nForced                                   : Yes\n\nText #2\nID                                       : 8\nFormat                                   : PGS\nMuxing mode                              : zlib\nCodec ID                                 : S_HDMV/PGS\nCodec ID/Info                            : Picture based subtitle format used on BDs/HD-DVDs\nLanguage                                 : Chinese\nDefault                                  : No\nForced                                   : No\n\nMenu\n00:00:00.000                             : en:Chapter 01\n00:11:49.500                             : en:Chapter 02\n00:19:25.208                             : en:Chapter 03\n00:26:32.541                             : en:Chapter 04\n00:36:24.375                             : en:Chapter 05\n00:43:05.333                             : en:Chapter 06\n00:54:03.875                             : en:Chapter 07\n01:03:53.666                             : en:Chapter 08\n01:11:12.333                             : en:Chapter 09\n01:21:18.291                             : en:Chapter 10\n01:26:56.875                             : en:Chapter 11\n01:33:13.958                             : en:Chapter 12\n01:41:22.875                             : en:Chapter 13\n01:50:31.000                             : en:Chapter 14\n02:02:11.208                             : en:Chapter 15","torrent":{"xt":"urn:btih:f25c285ae06f1fd44be7a44af3c55b5ffc7d286b","amp;dn":"The.Crossing.2014.CHINESE.1080p.BluRay.REMUX.AVC.TrueHD.7.1.Atmo","amp;tr":["udp%3A%2F%2Ftracker.openbittorrent.com%3A80","udp%3A%2F%2Fopen.demonii.com%3A1337","udp%3A%2F%2Ftracker.coppersurfer.tk%3A6969","udp%3A%2F%2Fexodus.desync.com%3A6969"],"infoHash":"f25c285ae06f1fd44be7a44af3c55b5ffc7d286b","infoHashBuffer":{"type":"Buffer","data":[242,92,40,90,224,111,31,212,75,231,164,74,243,197,91,95,252,125,40,107]},"announce":[],"urlList":[]}}